<?xml version="1.0" encoding="UTF-8"?>
<svg xmlns="http://www.w3.org/2000/svg" viewBox="-15.59 -796.35 2040.10 848.07" width="510" height="212">
  <title>ativo wordmark</title>
  <path d="M208.98 11.72L208.98 11.72Q157.23 11.72 115.23-7.57Q73.24-26.86 48.83-63.96Q24.41-101.07 24.41-154.30L24.41-154.30Q24.41-200.68 42.24-230.22Q60.06-259.77 90.33-277.34Q120.61-294.92 157.71-303.71Q194.82-312.50 233.89-317.38L233.89-317.38Q283.20-322.75 313.48-326.66Q343.75-330.57 357.67-339.11Q371.58-347.66 371.58-366.70L371.58-366.70L371.58-369.14Q371.58-415.53 345.46-440.92Q319.34-466.31 268.07-466.31L268.07-466.31Q214.84-466.31 183.84-443.12Q152.83-419.92 141.11-390.63L141.11-390.63L41.02-413.57Q59.08-463.38 93.51-493.90Q127.93-524.41 172.61-538.57Q217.29-552.73 266.11-552.73L266.11-552.73Q298.83-552.73 335.45-545.17Q372.07-537.60 404.54-517.33Q437.01-497.07 457.52-459.47Q478.03-421.88 478.03-362.30L478.03-362.30L478.03 0L374.02 0L374.02-74.71L370.12-74.71Q360.35-54.69 339.60-34.67Q318.85-14.65 286.62-1.46Q254.39 11.72 208.98 11.72ZM231.93-73.24L231.93-73.24Q276.37-73.24 307.62-90.58Q338.87-107.91 355.47-136.23Q372.07-164.55 372.07-196.29L372.07-196.29L372.07-267.09Q366.21-261.72 350.10-256.84Q333.98-251.95 313.48-248.54Q292.97-245.12 273.44-242.43Q253.91-239.75 240.72-238.28L240.72-238.28Q209.96-233.89 184.57-224.85Q159.18-215.82 143.80-198.49Q128.42-181.15 128.42-152.83L128.42-152.83Q128.42-113.28 157.71-93.26Q187.01-73.24 231.93-73.24ZM500.64-545.90L798.50-545.90L798.50-460.45L500.64-460.45L500.64-545.90ZM580.23-138.67L580.23-675.78L686.19-675.78L686.19-160.16Q686.19-122.56 701.82-105.22Q717.44-87.89 752.11-87.89L752.11-87.89Q760.41-87.89 769.93-88.87Q779.45-89.84 789.22-91.80L789.22-91.80L809.24-3.91Q793.13 1.46 774.08 4.39Q755.04 7.32 736.00 7.32L736.00 7.32Q665.20 7.32 622.71-32.47Q580.23-72.27 580.23-138.67L580.23-138.67ZM944.65 0L839.18 0L839.18-545.90L944.65-545.90L944.65 0ZM892.40-629.88L892.40-629.88Q864.57-629.88 845.04-648.44Q825.51-666.99 825.51-692.87L825.51-692.87Q825.51-719.24 845.04-737.79Q864.57-756.35 892.40-756.35L892.40-756.35Q919.75-756.35 939.52-737.79Q959.30-719.24 959.30-692.87L959.30-692.87Q959.30-666.99 939.52-648.44Q919.75-629.88 892.40-629.88ZM1363.75-545.90L1477.03-545.90L1279.77 0L1165.51 0L967.75-545.90L1081.52-545.90L1220.20-125L1226.05-125L1363.75-545.90ZM1729.63 11.23L1729.63 11.23Q1652.97 11.23 1595.60-23.93Q1538.22-59.08 1506.73-122.56Q1475.23-186.04 1475.23-270.02L1475.23-270.02Q1475.23-354.98 1506.73-418.70Q1538.22-482.42 1595.60-517.58Q1652.97-552.73 1729.63-552.73L1729.63-552.73Q1806.78-552.73 1863.91-517.58Q1921.04-482.42 1952.77-418.70Q1984.51-354.98 1984.51-270.02L1984.51-270.02Q1984.51-186.04 1952.77-122.56Q1921.04-59.08 1863.91-23.93Q1806.78 11.23 1729.63 11.23ZM1729.63-78.13L1729.63-78.13Q1779.92-78.13 1812.64-104.49Q1845.35-130.86 1861.22-174.56Q1877.09-218.26 1877.09-270.02L1877.09-270.02Q1877.09-322.75 1861.22-366.70Q1845.35-410.64 1812.64-437.01Q1779.92-463.38 1729.63-463.38L1729.63-463.38Q1679.82-463.38 1647.35-437.01Q1614.88-410.64 1598.77-366.70Q1582.66-322.75 1582.66-270.02L1582.66-270.02Q1582.66-218.26 1598.77-174.56Q1614.88-130.86 1647.35-104.49Q1679.82-78.13 1729.63-78.13Z" fill="#0E3B3A"></path>
</svg>